<svg width="22" height="18" viewBox="0 0 22 18" fill="none" xmlns="http://www.w3.org/2000/svg">
<path d="M2.6 18C2.0225 18 1.5283 17.7799 1.1174 17.3396C0.7065 16.8994 0.5007 16.3695 0.5 15.75V2.25C0.5 1.63125 0.7058 1.10175 1.1174 0.6615C1.529 0.22125 2.0232 0.00075 2.6 0H19.4C19.9775 0 20.472 0.2205 20.8836 0.6615C21.2952 1.1025 21.5007 1.632 21.5 2.25V15.75C21.5 16.3687 21.2945 16.8986 20.8836 17.3396C20.4727 17.7806 19.9782 18.0007 19.4 18H2.6ZM11 10.125L2.6 4.5V15.75H19.4V4.5L11 10.125ZM11 7.875L19.4 2.25H2.6L11 7.875ZM2.6 4.5V2.25V15.75V4.5Z" fill="#F8FAFC"/>
</svg>
