<svg width="12" height="18" viewBox="0 0 12 18" fill="none" xmlns="http://www.w3.org/2000/svg">
<path fill-rule="evenodd" clip-rule="evenodd" d="M2.515 6.48646C2.18498 6.48646 1.85819 6.55146 1.5533 6.67775C1.2484 6.80405 0.971362 6.98916 0.738003 7.22252C0.504645 7.45588 0.319535 7.73291 0.193242 8.03781C0.066949 8.34271 0.00194711 8.66949 0.00194711 8.99951C0.00194711 9.32953 0.066949 9.65632 0.193242 9.96122C0.319535 10.2661 0.504645 10.5432 0.738003 10.7765C0.971362 11.0099 1.2484 11.195 1.5533 11.3213C1.85819 11.4476 2.18498 11.5126 2.515 11.5126H5.02805V6.48646H2.515ZM5.02805 5.02708H2.515C1.84837 5.02708 1.20904 4.76226 0.737659 4.29088C0.266279 3.8195 0.00146045 3.18017 0.00146045 2.51354C0.00146045 1.84691 0.266279 1.20758 0.737659 0.736199C1.20904 0.264819 1.84837 0 2.515 0H5.02805V5.02708ZM6.48743 0V5.02708H9.00049C9.65856 5.01413 10.2853 4.74362 10.7461 4.27365C11.2069 3.80368 11.4651 3.17174 11.4651 2.51354C11.4651 1.85534 11.2069 1.2234 10.7461 0.753426C10.2853 0.283456 9.65856 0.0129476 9.00049 0H6.48743ZM9.00049 6.48549C8.34084 6.4854 7.70761 6.74469 7.23745 7.20739C6.76729 7.67008 6.49791 8.29909 6.48743 8.95865V9.0394C6.49549 9.53462 6.64969 10.0164 6.93068 10.4243C7.21167 10.8321 7.60691 11.1479 8.06676 11.3318C8.52661 11.5158 9.03057 11.5598 9.51533 11.4582C10.0001 11.3567 10.444 11.1142 10.7914 10.7611C11.1388 10.4081 11.3741 9.96032 11.4678 9.47398C11.5615 8.98764 11.5094 8.48446 11.3181 8.02764C11.1267 7.57081 10.8047 7.18071 10.3923 6.90634C9.97999 6.63197 9.49577 6.48555 9.00049 6.48549ZM2.515 12.9719C2.01773 12.9718 1.53157 13.119 1.11802 13.3952C0.70446 13.6713 0.382079 14.0639 0.19165 14.5232C0.00121969 14.9826 -0.0487056 15.4881 0.0481888 15.9758C0.145083 16.4636 0.384444 16.9116 0.735998 17.2633C1.08755 17.615 1.53551 17.8545 2.02321 17.9516C2.51091 18.0487 3.01644 17.999 3.47588 17.8087C3.93531 17.6185 4.32801 17.2962 4.6043 16.8828C4.88058 16.4693 5.02805 15.9832 5.02805 15.486V12.9719H2.515Z" fill="#9333EA"/>
</svg>
