<svg width="18" height="18" viewBox="0 0 18 18" fill="none" xmlns="http://www.w3.org/2000/svg">
<path d="M0 0V18H18V0H0ZM9.79554 14.0384C9.79554 15.7902 8.76696 16.5897 7.2683 16.5897C5.91429 16.5897 5.1308 15.8906 4.72902 15.0429L6.10714 14.2112C6.37232 14.6813 6.61339 15.079 7.19598 15.079C7.75045 15.079 8.10402 14.8621 8.10402 14.0143V8.26473H9.79554V14.0384ZM13.7973 16.5897C12.2263 16.5897 11.2098 15.8424 10.7156 14.8621L12.0937 14.0665C12.4554 14.6571 12.9295 15.0951 13.7612 15.0951C14.4603 15.0951 14.9103 14.7455 14.9103 14.2594C14.9103 13.6808 14.4522 13.4759 13.6768 13.1344L13.2549 12.9536C12.0335 12.4353 11.2259 11.7804 11.2259 10.4022C11.2259 9.13259 12.1942 8.1683 13.7009 8.1683C14.7777 8.1683 15.5491 8.54196 16.1036 9.52232L14.7857 10.3661C14.4964 9.84777 14.183 9.64286 13.6969 9.64286C13.2027 9.64286 12.8893 9.95625 12.8893 10.3661C12.8893 10.8723 13.2027 11.0772 13.9299 11.3946L14.3518 11.5754C15.7902 12.1902 16.5978 12.821 16.5978 14.2353C16.5978 15.754 15.4004 16.5897 13.7973 16.5897Z" fill="#F8FAFC"/>
</svg>
