<svg width="18" height="18" viewBox="0 0 18 18" fill="none" xmlns="http://www.w3.org/2000/svg">
<path d="M1.8 3.6C2.79411 3.6 3.6 2.79411 3.6 1.8C3.6 0.805887 2.79411 0 1.8 0C0.805887 0 0 0.805887 0 1.8C0 2.79411 0.805887 3.6 1.8 3.6Z" fill="#9333EA"/>
<path fill-rule="evenodd" clip-rule="evenodd" d="M1.8 5.4C2.79411 5.4 3.6 6.20589 3.6 7.2V16.2C3.6 17.1941 2.79411 18 1.8 18C0.805887 18 0 17.1941 0 16.2V7.2C0 6.20589 0.805887 5.4 1.8 5.4Z" fill="#9333EA"/>
<path fill-rule="evenodd" clip-rule="evenodd" d="M7.2 5.4C8.19411 5.4 9 6.20589 9 7.2V16.2C9 17.1941 8.19411 18 7.2 18C6.20589 18 5.4 17.1941 5.4 16.2V7.2C5.4 6.20589 6.20589 5.4 7.2 5.4Z" fill="#9333EA"/>
<path fill-rule="evenodd" clip-rule="evenodd" d="M11.7 9C10.2101 9 9 10.2101 9 11.7C9 12.6941 8.19411 13.5 7.2 13.5C6.20589 13.5 5.4 12.6941 5.4 11.7C5.4 8.22189 8.22189 5.4 11.7 5.4C15.1781 5.4 18 8.22189 18 11.7V16.2C18 17.1941 17.1941 18 16.2 18C15.2059 18 14.4 17.1941 14.4 16.2V11.7C14.4 10.2101 13.1899 9 11.7 9Z" fill="#9333EA"/>
</svg>
