<svg width="13" height="19" viewBox="0 0 13 19" fill="none" xmlns="http://www.w3.org/2000/svg">
<path d="M6.50001 9.05C5.90328 9.05 5.33098 8.81295 4.90902 8.39099C4.48707 7.96903 4.25001 7.39674 4.25001 6.8C4.25001 6.20326 4.48707 5.63097 4.90902 5.20901C5.33098 4.78705 5.90328 4.55 6.50001 4.55C7.09675 4.55 7.66905 4.78705 8.091 5.20901C8.51296 5.63097 8.75001 6.20326 8.75001 6.8C8.75001 7.09547 8.69181 7.38806 8.57874 7.66104C8.46567 7.93402 8.29993 8.18206 8.091 8.39099C7.88207 8.59992 7.63403 8.76566 7.36105 8.87873C7.08807 8.9918 6.79549 9.05 6.50001 9.05ZM6.50001 0.5C4.82915 0.5 3.22672 1.16375 2.04524 2.34523C0.86376 3.52671 0.200012 5.12914 0.200012 6.8C0.200012 11.525 6.50001 18.5 6.50001 18.5C6.50001 18.5 12.8 11.525 12.8 6.8C12.8 5.12914 12.1363 3.52671 10.9548 2.34523C9.77331 1.16375 8.17088 0.5 6.50001 0.5Z" fill="#9333EA"/>
</svg>
