<svg width="9" height="18" viewBox="0 0 9 18" fill="none" xmlns="http://www.w3.org/2000/svg">
<path d="M6.17459 2.00702C5.59672 1.36306 5.04666 0.697727 4.52572 0.0126236C4.52279 0.0087241 4.5189 0.00554145 4.51437 0.00334428C4.50985 0.00114711 4.50483 0 4.49973 0C4.49463 0 4.48961 0.00114711 4.48509 0.00334428C4.48056 0.00554145 4.47667 0.0087241 4.47374 0.0126236C3.95282 0.698033 3.40276 1.36366 2.82487 2.00792C-4.11712 10.2762 3.92027 15.8544 3.92027 15.8544L3.98476 15.8967C4.04636 16.7598 4.19749 18 4.19749 18H4.80198C4.80198 18 4.9531 16.7652 5.01374 15.903L5.08015 15.8544C5.08015 15.8544 13.1166 10.2762 6.17555 2.00792M4.49973 15.7338C4.49973 15.7338 4.13973 15.4458 4.04251 15.3018L4.04155 15.2874L4.47759 6.28562C4.47867 6.28075 4.48151 6.27638 4.48563 6.27325C4.48975 6.27011 4.4949 6.2684 4.50021 6.2684C4.50552 6.2684 4.51067 6.27011 4.51479 6.27325C4.51892 6.27638 4.52175 6.28075 4.52283 6.28562L4.95791 15.2874V15.3027C4.86069 15.4467 4.49973 15.7338 4.49973 15.7338Z" fill="#9333EA"/>
</svg>
