<svg width="18" height="18" viewBox="0 0 18 18" fill="none" xmlns="http://www.w3.org/2000/svg">
<path d="M8.4105 0.00474748C8.3718 0.00825748 8.24859 0.0205874 8.13771 0.0293174C5.58117 0.259807 3.18645 1.63933 1.66968 3.75955C0.82521 4.93846 0.28494 6.27568 0.08091 7.69219C0.00882002 8.18665 0 8.33272 0 9.00304C0 9.67345 0.00881997 9.81952 0.081 10.3139C0.57006 13.6939 2.9754 16.5339 6.23754 17.5861C6.82173 17.7743 7.43751 17.9028 8.1378 17.9802C8.41059 18.0101 9.58941 18.0101 9.8622 17.9802C11.071 17.8464 12.095 17.5474 13.105 17.0318C13.2598 16.9526 13.2898 16.9315 13.2686 16.9139C13.2546 16.9033 12.5947 16.0183 11.803 14.9485L10.3637 13.0043L8.56008 10.335C7.56774 8.86759 6.75135 7.66753 6.74424 7.66753C6.73722 7.66582 6.7302 8.85175 6.72669 10.2998C6.72138 12.8353 6.71967 12.9374 6.68799 12.9971C6.64227 13.0834 6.60708 13.1186 6.5331 13.1573C6.47685 13.1854 6.42753 13.1907 6.16185 13.1907H5.85747L5.77647 13.1397C5.72632 13.1083 5.68559 13.0639 5.65857 13.0113L5.62167 12.9321L5.62527 9.40426L5.63049 5.87464L5.68503 5.80597C5.7132 5.76907 5.77305 5.72155 5.81526 5.69869C5.88735 5.6635 5.91552 5.65999 6.2199 5.65999C6.57891 5.65999 6.63867 5.67403 6.732 5.77609C6.75837 5.80426 7.73487 7.27522 8.90325 9.04705C10.0861 10.8405 11.2697 12.6334 12.4539 14.4259L13.8792 16.5849L13.9514 16.5374C14.59 16.1221 15.2657 15.5309 15.8006 14.915C16.939 13.6077 17.6728 12.0136 17.9191 10.3139C17.9912 9.81952 18 9.67345 18 9.00304C18 8.33263 17.9912 8.18665 17.9191 7.69219C17.4299 4.31215 15.0246 1.47229 11.7625 0.420097C11.1871 0.233527 10.5748 0.105097 9.88857 0.0276974C9.71964 0.0100574 8.55648 -0.00929252 8.4105 0.00474748ZM12.095 5.44885C12.1794 5.49106 12.2481 5.57197 12.2728 5.65639C12.2868 5.7022 12.2903 6.6805 12.2868 8.88514L12.2815 12.0488L11.7238 11.1936L11.1642 10.3385V8.03887C11.1642 6.55207 11.1712 5.71624 11.1818 5.67574C11.2099 5.57728 11.2715 5.49988 11.356 5.45407C11.4281 5.41717 11.4546 5.41357 11.7308 5.41357C11.9912 5.41357 12.037 5.41717 12.095 5.44885Z" fill="#F8FAFC"/>
</svg>
