<svg width="17" height="18" viewBox="0 0 17 18" fill="none" xmlns="http://www.w3.org/2000/svg">
<path d="M8.26508 18C8.00811 18 7.76917 17.9331 7.54601 17.8174L5.27011 16.5115C4.92824 16.3297 5.09955 16.2636 5.20249 16.2305C5.66383 16.0818 5.74949 16.0487 6.22886 15.7835C6.27995 15.7504 6.34908 15.7669 6.40017 15.8L8.14561 16.8091C8.21323 16.8421 8.29964 16.8421 8.35073 16.8091L15.1784 12.9891C15.2461 12.9561 15.2806 12.8899 15.2806 12.8073V5.18387C15.2806 5.10122 15.2468 5.0351 15.1784 5.00204L8.35073 1.19936C8.28236 1.1663 8.1967 1.1663 8.14561 1.19936L1.3179 5.00204C1.24953 5.0351 1.21497 5.11775 1.21497 5.18387V12.8073C1.21497 12.8734 1.24953 12.9561 1.3179 12.9891L3.18281 14.0313C4.19265 14.5272 4.8253 13.9486 4.8253 13.3701V5.84583C4.8253 5.74665 4.91096 5.64747 5.03118 5.64747H5.90352C6.00646 5.64747 6.10864 5.73012 6.10864 5.84583V13.3693C6.10864 14.6759 5.37305 15.4363 4.08971 15.4363C3.69599 15.4363 3.38793 15.4363 2.51559 15.0231L0.719062 14.0313C0.502735 13.912 0.322084 13.7373 0.1957 13.5251C0.0693167 13.3129 0.00176602 13.0708 0 12.8238V5.2004C0 4.7045 0.273499 4.24165 0.719062 3.9937L7.54676 0.172983C7.76914 0.0592863 8.01532 0 8.26508 0C8.51483 0 8.76101 0.0592863 8.98339 0.172983L15.8118 3.99295C16.2567 4.2409 16.5302 4.70375 16.5302 5.19965V12.8231C16.5302 13.319 16.2567 13.7818 15.8118 14.0305L8.98414 17.8497C8.75719 17.9481 8.51243 17.9987 8.26508 17.9985M10.3697 12.7562C7.37545 12.7562 6.75933 11.4338 6.75933 10.309C6.75933 10.2098 6.84499 10.1106 6.96445 10.1106H7.85408C7.95701 10.1106 8.04192 10.1767 8.04192 10.2759C8.17942 11.152 8.57314 11.5818 10.3869 11.5818C11.8243 11.5818 12.4404 11.2677 12.4404 10.5239C12.4404 10.0941 12.2691 9.78001 10.0278 9.56511C8.16214 9.38253 6.99902 8.98656 6.99902 7.54768C6.99902 6.20799 8.16214 5.41379 10.1134 5.41379C12.3037 5.41379 13.3819 6.14187 13.5187 7.72952C13.517 7.78324 13.4989 7.83516 13.4668 7.87829C13.433 7.91135 13.3819 7.94441 13.3301 7.94441H12.4404C12.3972 7.94336 12.3555 7.92828 12.3216 7.90144C12.2877 7.8746 12.2635 7.83746 12.2526 7.79564C12.0467 6.88648 11.5163 6.58818 10.1134 6.58818C8.53857 6.58818 8.35073 7.11715 8.35073 7.51462C8.35073 7.994 8.57314 8.14277 10.695 8.40725C12.7996 8.67174 13.7922 9.05193 13.7922 10.4735C13.7749 11.9297 12.5434 12.7562 10.3697 12.7562Z" fill="#9333EA"/>
</svg>
