<svg width="18" height="18" viewBox="0 0 18 18" fill="none" xmlns="http://www.w3.org/2000/svg">
<path d="M8.9355 0C4.365 0 4.65 1.992 4.65 1.992L4.65525 4.056H9.01575V4.6755H2.925C2.925 4.6755 0 4.34175 0 8.97675C0 13.6117 2.55225 13.4468 2.55225 13.4468H4.07475V11.2965C4.07475 11.2965 3.993 8.7315 6.58725 8.7315H10.9117C10.9117 8.7315 13.3417 8.7705 13.3417 6.3705V2.4015C13.3417 2.4015 13.7107 0 8.9355 0ZM6.531 1.3875C6.9645 1.3875 7.3155 1.74 7.3155 2.1765C7.3155 2.61225 6.9645 2.96475 6.531 2.96475C6.0975 2.96475 5.7465 2.61225 5.7465 2.1765C5.7465 1.74 6.09675 1.3875 6.531 1.3875Z" fill="#9333EA"/>
<path d="M9.06521 18C13.6342 18 13.3492 16.008 13.3492 16.008L13.344 13.944H8.98346V13.3245H15.0757C15.0757 13.3245 18.0007 13.6582 18.0007 9.02322C18.0007 4.38822 15.4477 4.55322 15.4477 4.55322H13.9252V6.70347C13.9252 6.70347 14.007 9.26847 11.4127 9.26847H7.08896C7.08896 9.26847 4.65896 9.22947 4.65896 11.6295V15.5985C4.65896 15.5985 4.28996 18 9.06521 18ZM11.4697 16.6125C11.0355 16.6125 10.6852 16.26 10.6852 15.8235C10.6852 15.3877 11.0355 15.0352 11.4697 15.0352C11.9032 15.0352 12.2542 15.3877 12.2542 15.8235C12.2542 16.26 11.9032 16.6125 11.4697 16.6125Z" fill="#9333EA"/>
</svg>
