<svg width="21" height="18" viewBox="0 0 21 18" fill="none" xmlns="http://www.w3.org/2000/svg">
<path d="M16.6341 5.83551C16.4188 5.76165 16.2016 5.69322 15.9829 5.63027C16.0196 5.48012 16.0535 5.33178 16.0835 5.18605C16.5765 2.793 16.2542 0.865107 15.1534 0.230353C14.098 -0.378164 12.3719 0.256353 10.6287 1.77346C10.4569 1.92324 10.2889 2.07734 10.1249 2.23561C10.0151 2.13037 9.90339 2.02717 9.78977 1.92606C7.9628 0.303928 6.13156 -0.379745 5.03196 0.256827C3.97749 0.867241 3.66525 2.67959 4.10907 4.94755C4.15323 5.17216 4.20308 5.39562 4.25859 5.6177C3.99938 5.69136 3.74926 5.76975 3.50988 5.85321C1.3679 6.60002 0 7.77035 0 8.98431C0 10.2381 1.4685 11.4957 3.69947 12.2582C3.88034 12.3198 4.06272 12.3768 4.24642 12.4293C4.18678 12.6685 4.13381 12.9093 4.08757 13.1515C3.66446 15.3801 3.99487 17.1496 5.0465 17.7561C6.13267 18.3825 7.95569 17.7387 9.73074 16.187C9.87467 16.0608 10.0154 15.9311 10.1529 15.798C10.3305 15.9693 10.5129 16.1357 10.6998 16.2969C12.4193 17.7765 14.1174 18.374 15.168 17.7658C16.2532 17.1376 16.6059 15.2366 16.148 12.9239C16.1119 12.7427 16.0715 12.5624 16.0267 12.3832C16.1547 12.3452 16.2804 12.3062 16.4029 12.2656C18.7222 11.4972 20.2312 10.2548 20.2312 8.98431C20.2312 7.76593 18.8191 6.5877 16.6341 5.83551ZM16.1311 11.4452C16.0203 11.4818 15.9071 11.5172 15.7913 11.5515C15.5352 10.7409 15.1897 9.87906 14.7668 8.98849C15.1703 8.11918 15.5026 7.26829 15.7514 6.46299C15.9584 6.52289 16.1592 6.58604 16.3528 6.65266C18.225 7.29721 19.367 8.25005 19.367 8.98431C19.367 9.76637 18.1336 10.7816 16.1311 11.4452ZM15.3002 13.0917C15.5026 14.1143 15.5315 15.039 15.3974 15.7618C15.2769 16.4114 15.0346 16.8444 14.735 17.0178C14.0974 17.3869 12.734 16.9072 11.2635 15.6418C11.0897 15.4919 10.92 15.3372 10.7548 15.1779C11.3249 14.5544 11.8946 13.8297 12.4507 13.0247C13.4287 12.9379 14.3527 12.796 15.1906 12.6023C15.232 12.7689 15.2685 12.932 15.3002 13.0917ZM6.89726 16.9541C6.27436 17.174 5.77822 17.1803 5.47831 17.0074C4.84016 16.6394 4.57486 15.2185 4.93673 13.3127C4.97975 13.0875 5.02901 12.8635 5.08444 12.641C5.91313 12.8244 6.83041 12.9562 7.81075 13.0357C8.37059 13.8234 8.95674 14.5473 9.54747 15.1813C9.42193 15.3028 9.29341 15.4211 9.16205 15.5363C8.37707 16.2224 7.5905 16.7092 6.89726 16.9541ZM3.97907 11.4404C2.99256 11.1032 2.17786 10.665 1.61945 10.1868C1.11762 9.75712 0.864331 9.33045 0.864331 8.98431C0.864331 8.2476 1.96259 7.30796 3.79438 6.66933C4.01669 6.59188 4.24935 6.51878 4.49078 6.45019C4.74398 7.27366 5.07606 8.13467 5.47681 9.00533C5.07084 9.88886 4.73403 10.7636 4.47837 11.5968C4.31068 11.5488 4.1442 11.4966 3.97907 11.4404ZM4.95728 4.78151C4.57708 2.83844 4.82957 1.37271 5.46504 1.00483C6.14183 0.613007 7.63847 1.17166 9.21595 2.57235C9.31882 2.66389 9.42002 2.75729 9.5195 2.85251C8.93169 3.48371 8.35091 4.20231 7.79605 4.98532C6.84455 5.07352 5.93375 5.21513 5.09637 5.40488C5.04477 5.19832 4.99839 4.99041 4.95728 4.78151ZM13.6841 6.93653C13.4863 6.59488 13.2812 6.25754 13.0689 5.92473C13.7144 6.00636 14.3329 6.11471 14.9136 6.24716C14.7393 6.80605 14.522 7.39031 14.2662 7.98934C14.0792 7.63456 13.8851 7.28355 13.6841 6.93653ZM10.1253 3.47027C10.5239 3.90216 10.9232 4.38431 11.3159 4.90748C10.5193 4.86985 9.72135 4.86969 8.92473 4.907C9.31782 4.38866 9.72047 3.90714 10.1253 3.47027ZM6.54369 6.94237C6.3452 7.28661 6.15477 7.63543 5.97256 7.98855C5.72093 7.39165 5.50558 6.80471 5.32974 6.23792C5.90696 6.10879 6.52251 6.0032 7.16391 5.92307C6.94923 6.25792 6.74244 6.59783 6.54369 6.94237ZM7.18232 12.1069C6.51967 12.033 5.89487 11.9328 5.31781 11.8072C5.49641 11.2303 5.7165 10.6309 5.97358 10.0212C6.15652 10.3745 6.34774 10.7236 6.54709 11.068C6.75209 11.422 6.96436 11.7688 7.18232 12.1069ZM10.1492 14.5592C9.73951 14.1173 9.33094 13.6283 8.93192 13.1025C9.31932 13.1176 9.71422 13.1254 10.1156 13.1254C10.528 13.1254 10.9356 13.1161 11.3368 13.0983C10.9429 13.6336 10.5451 14.1233 10.1492 14.5592ZM14.2743 9.99002C14.5447 10.6064 14.7727 11.2027 14.9536 11.7697C14.3671 11.9036 13.7338 12.0114 13.0664 12.0915C13.2803 11.7525 13.4874 11.4093 13.6875 11.062C13.8911 10.7091 14.0867 10.3517 14.2743 9.99002ZM12.9389 10.6302C12.6324 11.1626 12.3087 11.6848 11.9683 12.1962C11.3517 12.2399 10.7338 12.2616 10.1156 12.2612C9.48599 12.2612 8.8736 12.2416 8.28389 12.2034C7.93459 11.6932 7.60473 11.1701 7.29501 10.635C6.98671 10.1027 6.69884 9.55897 6.43187 9.00485C6.69817 8.45061 6.98525 7.90659 7.29248 7.37395C7.59957 6.84114 7.92672 6.32029 8.27338 5.81235C8.87502 5.76683 9.492 5.74312 10.1155 5.74312C10.7419 5.74312 11.3597 5.76707 11.9612 5.8129C12.3044 6.32008 12.6295 6.83923 12.936 7.36936C13.2443 7.90086 13.5351 8.44222 13.8082 8.9926C13.5379 9.54861 13.248 10.0948 12.9389 10.6302ZM14.7218 0.978987C15.3992 1.3697 15.6627 2.94529 15.237 5.01148C15.2097 5.1434 15.1794 5.27749 15.1461 5.41373C14.3067 5.21996 13.3953 5.07589 12.441 4.98635C11.8851 4.19472 11.3091 3.47501 10.7308 2.85195C10.8824 2.70588 11.0375 2.56358 11.1962 2.4252C12.6898 1.12543 14.0857 0.612217 14.7218 0.978987ZM10.1156 7.17772C11.1133 7.17772 11.9222 7.98657 11.9222 8.98431C11.9222 9.98204 11.1133 10.7909 10.1156 10.7909C9.11788 10.7909 8.30902 9.98204 8.30902 8.98431C8.30902 7.98657 9.11788 7.17772 10.1156 7.17772Z" fill="#F8FAFC"/>
</svg>
