<svg width="19" height="18" viewBox="0 0 19 18" fill="none" xmlns="http://www.w3.org/2000/svg">
<path d="M13.125 4.5C13.125 6.36493 11.6149 7.875 9.75 7.875C7.88507 7.875 6.375 6.36493 6.375 4.5C6.375 2.63507 7.88507 1.125 9.75 1.125C11.6149 1.125 13.125 2.63507 13.125 4.5ZM1.875 15.75C1.875 15.4151 2.03385 15.0385 2.49685 14.6111C2.9675 14.1767 3.67334 13.7701 4.54195 13.4221C6.28097 12.7255 8.38876 12.375 9.75 12.375C11.1112 12.375 13.219 12.7255 14.9581 13.4221C15.8267 13.7701 16.5325 14.1767 17.0031 14.6111C17.4662 15.0385 17.625 15.4151 17.625 15.75V16.875H1.875V15.75Z" stroke="#9333EA" stroke-width="2.25"/>
</svg>
