<svg width="30" height="18" viewBox="0 0 30 18" fill="none" xmlns="http://www.w3.org/2000/svg">
<path d="M15 0C10.995 0 8.505 1.995 7.5 6C9 4.005 10.755 3.255 12.75 3.75C13.89 4.035 14.715 4.86 15.615 5.775C17.085 7.275 18.75 9 22.5 9C26.505 9 28.995 7.005 30 3C28.5 4.995 26.745 5.745 24.75 5.25C23.61 4.965 22.8 4.14 21.885 3.225C20.415 1.725 18.75 0 15 0ZM7.5 9C3.495 9 1.005 10.995 0 15C1.5 13.005 3.255 12.255 5.25 12.75C6.39 13.035 7.2 13.86 8.115 14.775C9.585 16.275 11.25 18 15 18C19.005 18 21.495 16.005 22.5 12C21 13.995 19.245 14.745 17.25 14.25C16.11 13.965 15.3 13.14 14.385 12.225C12.915 10.725 11.25 9 7.5 9Z" fill="#F8FAFC"/>
</svg>
