<svg width="19" height="18" viewBox="0 0 19 18" fill="none" xmlns="http://www.w3.org/2000/svg">
<path d="M0.231201 9.00134V18.0013H18.2312V0.00134277H0.231201V9.00134ZM14.7363 8.28134C15.1674 8.38139 15.5593 8.60687 15.8624 8.92934C16.0293 9.10309 16.1743 9.29651 16.2944 9.50534C16.2944 9.52838 15.5168 10.054 15.043 10.3477C15.0258 10.3593 14.9566 10.2844 14.8803 10.1706C14.7938 10.0214 14.671 9.8965 14.5231 9.80761C14.3753 9.71872 14.2074 9.66873 14.035 9.6623C13.4893 9.62486 13.1379 9.91142 13.1408 10.3823C13.1364 10.4995 13.1633 10.6158 13.2186 10.7193C13.3381 10.9684 13.5613 11.1167 14.2611 11.4191C15.5499 11.9735 16.1014 12.3393 16.4442 12.8591C16.8272 13.4351 16.9122 14.3653 16.653 15.0537C16.365 15.8025 15.6594 16.3108 14.6614 16.4793C14.2057 16.5315 13.7451 16.5267 13.2906 16.4649C12.5938 16.35 11.9521 16.0155 11.4589 15.5101C11.2933 15.3273 10.9707 14.8506 10.9909 14.8161C11.0433 14.7769 11.0987 14.7417 11.1565 14.7109L11.8232 14.3423L12.3402 14.0428L12.4482 14.2026C12.6305 14.4633 12.8624 14.6855 13.1307 14.8564C13.7067 15.1588 14.493 15.117 14.8818 14.7671C15.0123 14.6389 15.0937 14.4689 15.1119 14.2869C15.13 14.1048 15.0838 13.9221 14.9811 13.7706C14.8371 13.5705 14.5491 13.402 13.7442 13.0506C12.8154 12.6503 12.415 12.4026 12.0493 12.0081C11.821 11.7476 11.6524 11.4405 11.5554 11.1081C11.483 10.7283 11.4723 10.3393 11.5237 9.95606C11.7152 9.05894 12.3877 8.43254 13.3698 8.24678C13.8246 8.19059 14.2853 8.20322 14.7363 8.28422V8.28134ZM10.5114 9.0359V9.77318H8.17424V16.4303H6.5168V9.77174H4.17392V9.05174C4.16657 8.80345 4.17234 8.55495 4.1912 8.30726C4.20272 8.2943 5.6312 8.2943 7.3592 8.2943H10.5027L10.5114 9.0359Z" fill="#F8FAFC"/>
</svg>
