<svg width="14" height="14" viewBox="0 0 14 14" fill="none" xmlns="http://www.w3.org/2000/svg">
<mask id="path-1-inside-1_637_519" fill="white">
<path d="M12.2082 2.97086L1.80389 13.3752C1.48021 13.6988 0.971551 13.6988 0.647862 13.3752C0.324173 13.0515 0.324173 12.5428 0.647862 12.2191L11.0522 1.81483C11.3758 1.49114 11.8845 1.49114 12.2082 1.81483C12.5319 2.13852 12.5319 2.64717 12.2082 2.97086Z"/>
<path d="M13.3642 9.90706C13.2893 9.98379 13.1992 10.044 13.0997 10.0838C13.0001 10.1236 12.8934 10.1422 12.7862 10.1383C12.3238 10.1383 11.9654 9.77989 11.9654 9.31748L11.9654 2.03447L4.68242 2.03447C4.22 2.03448 3.86163 1.6761 3.86163 1.21369C3.86163 0.751278 4.22 0.392908 4.68242 0.392908L12.7746 0.392908C13.2371 0.392908 13.5954 0.751279 13.5954 1.21369L13.5954 9.30592C13.5954 9.53713 13.5029 9.74521 13.3642 9.88394V9.90706Z"/>
</mask>
<path d="M13.3642 9.90706L14.7956 11.3039L15.3642 10.7212V9.90706L13.3642 9.90706ZM12.7862 10.1383L12.8593 8.1396L12.8228 8.13826L12.7862 8.13826V10.1383ZM11.9654 9.31748H13.9654H11.9654ZM11.9654 2.03447L13.9654 2.03447L13.9654 0.0344726L11.9654 0.0344736L11.9654 2.03447ZM4.68242 2.03447L4.68242 4.03447L4.68242 4.03447L4.68242 2.03447ZM4.68242 0.392908L4.68242 -1.60709L4.68242 0.392908ZM12.7746 0.392908V2.39291V0.392908ZM13.5954 1.21369L11.5954 1.21369L13.5954 1.21369ZM13.5954 9.30592L15.5954 9.30592L13.5954 9.30592ZM13.3642 9.88394L11.95 8.46972L11.3642 9.05551L11.3642 9.88394H13.3642ZM10.794 1.55665L0.389681 11.9609L3.21811 14.7894L13.6224 4.38508L10.794 1.55665ZM0.389681 11.9609C0.847041 11.5036 1.60472 11.5036 2.06208 11.9609L-0.766352 14.7894C0.338386 15.8941 2.11337 15.8941 3.21811 14.7894L0.389681 11.9609ZM2.06208 11.9609C2.51944 12.4183 2.51943 13.176 2.06208 13.6333L-0.766351 10.8049C-1.87109 11.9096 -1.87109 13.6846 -0.766352 14.7894L2.06208 11.9609ZM2.06208 13.6333L12.4664 3.22904L9.63794 0.400615L-0.766351 10.8049L2.06208 13.6333ZM12.4664 3.22904C12.009 3.6864 11.2513 3.6864 10.794 3.22904L13.6224 0.400614C12.5177 -0.704126 10.7427 -0.70412 9.63794 0.400615L12.4664 3.22904ZM10.794 3.22904C10.3366 2.77168 10.3366 2.01401 10.794 1.55665L13.6224 4.38508C14.7271 3.28034 14.7271 1.50535 13.6224 0.400614L10.794 3.22904ZM11.9329 8.51019C12.0529 8.38719 12.1973 8.29069 12.3569 8.22687L13.8425 11.9408C14.2011 11.7973 14.5258 11.5804 14.7956 11.3039L11.9329 8.51019ZM12.3569 8.22687C12.5165 8.16304 12.6876 8.13332 12.8593 8.1396L12.7131 12.1369C13.0991 12.1511 13.4838 12.0842 13.8425 11.9408L12.3569 8.22687ZM12.7862 8.13826C13.4284 8.13826 13.9654 8.67532 13.9654 9.31748L9.96542 9.31748C9.96542 10.8845 11.2192 12.1383 12.7862 12.1383L12.7862 8.13826ZM13.9654 9.31748L13.9654 2.03447L9.96542 2.03447V9.31748L13.9654 9.31748ZM11.9654 0.0344736L4.68242 0.0344749L4.68242 4.03447L11.9654 4.03447L11.9654 0.0344736ZM4.68242 0.034475C5.32457 0.0344744 5.86163 0.571535 5.86163 1.21369L1.86163 1.21369C1.86163 2.78067 3.11543 4.03447 4.68242 4.03447L4.68242 0.034475ZM5.86163 1.21369C5.86163 1.85585 5.32457 2.39291 4.68242 2.39291L4.68242 -1.60709C3.11543 -1.60709 1.86163 -0.353291 1.86163 1.21369L5.86163 1.21369ZM4.68242 2.39291L12.7746 2.39291L12.7746 -1.60709L4.68242 -1.60709L4.68242 2.39291ZM12.7746 2.39291C12.1325 2.39291 11.5954 1.85585 11.5954 1.21369L15.5954 1.21369C15.5954 -0.353292 14.3416 -1.60709 12.7746 -1.60709L12.7746 2.39291ZM11.5954 1.21369V9.30592L15.5954 9.30592V1.21369L11.5954 1.21369ZM11.5954 9.30592C11.5954 9.01275 11.7094 8.71033 11.95 8.46972L14.7784 11.2981C15.2965 10.7801 15.5954 10.0615 15.5954 9.30592L11.5954 9.30592ZM11.3642 9.88394V9.90706L15.3642 9.90706V9.88394L11.3642 9.88394Z" fill="#9333EA" mask="url(#path-1-inside-1_637_519)"/>
</svg>
